<svg fill="none" height="512" viewBox="0 0 512 512" width="512" xmlns="http://www.w3.org/2000/svg"><g fill="#3b82f6"><path clip-rule="evenodd" d="m224.223 453.695-.011.011-90.887-90.888c-8.787-8.786-8.787-23.033 0-31.819 8.786-8.787 23.033-8.787 31.819 0l90.886 90.886 196.301-196.301c8.787-8.787 23.033-8.787 31.82 0s8.787 23.033 0 31.82l-212.199 212.199c-8.787 8.787-23.033 8.787-31.82 0z" fill-rule="evenodd"/><circle cx="46" cy="243.7" r="22.5"/><circle cx="97.5" cy="295.5" r="22.5"/></g><path clip-rule="evenodd" d="m301.185 54.2524c1.569-5.1341 5.112-9.4352 9.851-11.9578 4.739-2.5227 10.286-3.0605 15.421-1.4952l40.478 12.3537c5.134 1.5689 9.435 5.1122 11.958 9.8511 2.522 4.7389 3.06 10.2855 1.495 15.4207l-13.343 43.7181-.052.198-54.408 164.451c-.992 3.008-2.676 5.741-4.916 7.979l-47.282 47.194c-1.113 1.108-2.506 1.893-4.03 2.271s-3.122.336-4.625-.122c-1.502-.459-2.851-1.316-3.904-2.481s-1.771-2.594-2.076-4.135l-12.818-65.279c-.669-3.418-.445-6.95.649-10.257l54.283-164.0957z" fill="#fbbf24" fill-rule="evenodd"/></svg>